<?xml version="1.0" encoding="utf-8"?>
<!-- Generator: Adobe Illustrator 26.0.1, SVG Export Plug-In . SVG Version: 6.00 Build 0)  -->
<svg version="1.1" id="Layer_1" xmlns="http://www.w3.org/2000/svg" xmlns:xlink="http://www.w3.org/1999/xlink" x="0px" y="0px"
	 viewBox="0 0 256 256" style="enable-background:new 0 0 256 256;" xml:space="preserve">
<style type="text/css">
	.st0{fill:#032EBB;}
	.st1{fill:#FFFFFF;}
	.st2{fill:#51C1FF;}
</style>
<g>
	<path class="st0" d="M107.1,211.1c19.6-0.2,36.4-5.7,51.2-16.8c2.1-1.5,4.3-2.7,6.9-2.9c5.7-0.5,10.8,2.6,12.8,7.8
		c2,5.2,0.4,10.8-4.2,14.4c-13.5,10.4-28.7,17.2-45.4,20.4C71,244.8,15.7,208.6,2.7,151.7C-10.9,92.1,28.4,32.7,88.5,22
		c31-5.5,59.3,1.4,84.7,20c4.4,3.2,6.5,7.6,5.4,13c-1.9,9-12.2,12.7-19.8,7.1c-9.2-6.9-19.2-11.8-30.3-14.7
		C80.2,35,31.3,68.5,25.5,118c-5.4,46.3,27.5,87.6,74,92.6C102.4,211,105.3,211,107.1,211.1z"/>
	<path class="st1" d="M135.5,115.1c9.5,0,19,0,28.5,0c9.1,0,14.4,5.5,14.3,14.6c-0.6,33.5-26.5,62.7-59.8,67.4
		c-37.9,5.3-72.5-19.2-79.3-56.9c-7-38.6,18.6-75.9,58.6-81.7c17-2.4,32.9,0.9,47.5,9.9c7.5,4.6,8.3,14.7,1.9,20.5
		c-4.3,3.9-10.3,4.4-15.6,1.2c-8.3-5-17.3-7.2-27-6.5c-22.1,1.7-39,19-40.8,41.8C62.1,146.1,76.9,166,97.6,171
		c22,5.3,44.5-6.6,52.2-27.7c0.9-2.5,0.9-2.5-1.8-2.5c-13.9,0-27.8,0-41.7,0c-7.7,0-13.4-5.3-13.5-12.6c-0.1-7.4,5.6-13,13.3-13
		C115.9,115.1,125.7,115.1,135.5,115.1z"/>
	<path class="st2" d="M256,128.7c-0.3,22.8-5.3,44.9-15.7,65.6c-3.3,6.5-10.3,9.1-16.5,6c-6.3-3.1-8.7-10.3-5.3-17
		c8.9-17.7,13.2-36.4,13.1-56.2c-0.1-19-4.5-37.1-13-54.1c-2.6-5.3-2.1-10.4,1.4-14.3c5.8-6.5,16-5.1,20.1,2.7
		c4.2,8.1,7.4,16.5,10,25.3C254,100.3,255.9,114.2,256,128.7z"/>
	<path class="st2" d="M216,127.1c-0.2,16.5-3.2,31.4-9.7,45.5c-3,6.6-10,9.4-16.4,6.5c-6.2-2.8-9-9.9-6.1-16.3
		c5.8-12.9,8.2-26.5,7.3-40.6c-0.6-10.1-3.2-19.8-7.3-29c-1.7-3.8-1.5-7.6,0.5-11.1c2.4-4.2,6.3-6.3,11-6.1
		c4.8,0.2,8.5,2.5,10.6,6.9c5.7,12.2,8.9,25.1,9.7,38.6C215.8,123.6,215.9,125.8,216,127.1z"/>
</g>
</svg>
