<svg xmlns="http://www.w3.org/2000/svg" viewBox="0 0 1224.81 473.81"><defs><style>.cls-1{fill:#ff73de;}</style></defs><g id="Layer_2" data-name="Layer 2"><g id="Layer_1-2" data-name="Layer 1"><path class="cls-1" d="M502.79,279.72a3.85,3.85,0,0,1,7.41,1L521,392.46a15.14,15.14,0,0,1-9,15.33,792,792,0,0,1-235.44,61.87A792.24,792.24,0,0,1,26.27,455.49a19,19,0,0,1-14.78-16.71L0,319.87a3.85,3.85,0,0,1,6.22-3.4c12.51,10,29.91,20.06,50.62,20.09,35.34.06,48.31-29.1,77.43-24.34,32.44,5.29,38.75,45.17,62.45,43.07,23.28-2.06,23.9-41.12,52.14-48,27.21-6.62,41.24,26.07,72.56,20.61,26.89-4.69,27.36-30.65,51.94-34.15,33.13-4.72,48.05,40.24,80.25,36.75C476.49,328,493.58,302.72,502.79,279.72Z"/><path class="cls-1" d="M413.21,102.82a3.85,3.85,0,0,1,6.93,1.92l7.23,75a15.11,15.11,0,0,1-9,15.34,567.78,567.78,0,0,1-165.58,43,567.17,567.17,0,0,1-178-9.89A15.11,15.11,0,0,1,63,214.86L55.7,139.38a3.85,3.85,0,0,1,6.91-2.69c8,10.73,19.27,19.54,30.45,18.42,19-1.91,22.06-30.87,39.92-31.47,15.54-.53,20.21,21.16,37.31,21,15.46-.19,17.57-18,34.87-20.24,19.37-2.54,26.86,18.43,46,15.51,16.33-2.5,17.19-18.75,31.83-20,19.85-1.62,28.74,27.4,45.35,24.78,16-2.51,16.46-30.86,35.07-34.06,11.91-2.06,16.47,8.72,29.76,6.33C402.21,115.33,408.88,108.73,413.21,102.82Z"/><path class="cls-1" d="M318.74.81A3.85,3.85,0,0,1,325,3.45l2,20.89a15.11,15.11,0,0,1-9.29,15.44,303.51,303.51,0,0,1-83.71,21,303.2,303.2,0,0,1-87-3.62,19,19,0,0,1-15.43-16.83l-2-20.39a3.86,3.86,0,0,1,6-3.53c11.68,8,27.44,6.23,29,6,16.17-2.11,17.82-12.31,31-12.2,16.19.13,19.09,15.46,33.68,15.16C245,25,247,7.35,265.75,5c13.1-1.67,16.07,6.45,31.14,4.66A48.94,48.94,0,0,0,318.74.81Z"/><path class="cls-1" d="M689.79,121.36h8.77q0,3.35-.21,8t-.83,10q-.63,5.33-1.46,10.54c-.56,3.48-1.19,6.62-1.88,9.4a53.27,53.27,0,0,1-9.71,3.86c-3.55,1-7.14,1.92-10.76,2.61a98.05,98.05,0,0,1-10.43,1.46q-5,.42-8.77.42-19.21,0-32.37-5.22t-21.5-13.57a49.58,49.58,0,0,1-12-18.79A63.59,63.59,0,0,1,585,109a112,112,0,0,1,6-37.69,81.71,81.71,0,0,1,17.65-29.23,78.43,78.43,0,0,1,28.39-18.89q16.81-6.68,38.11-6.68a140,140,0,0,1,24.74,2,70.63,70.63,0,0,1,17.85,5.32q-.63,3.34-2.09,8.57t-3.34,11q-1.87,5.74-4,11.27a100,100,0,0,1-4,9.29h-8.77l-4.8-31.52a19.57,19.57,0,0,0-6.27-1.68,63,63,0,0,0-8.77-.62A43.74,43.74,0,0,0,653.57,36,54.66,54.66,0,0,0,636,52.46a82,82,0,0,0-11.48,25.78A129.62,129.62,0,0,0,620.47,112q0,11.7,3.34,19.73a37.24,37.24,0,0,0,8.67,13.05A32.45,32.45,0,0,0,644.17,152a38.11,38.11,0,0,0,12.42,2.19A41.35,41.35,0,0,0,667,153a26.15,26.15,0,0,0,6.48-2.4Z"/><path class="cls-1" d="M777.69,132a81.08,81.08,0,0,1-6.78,13.05,62.68,62.68,0,0,1-9.29,11.37,46.62,46.62,0,0,1-11.49,8.15,29.88,29.88,0,0,1-13.57,3.13q-10.86,0-17.33-7.93t-6.47-23.6a99.4,99.4,0,0,1,4.49-30.38A77.9,77.9,0,0,1,730,81.17a59.2,59.2,0,0,1,19.94-16.5,56.83,56.83,0,0,1,26.1-6A30.11,30.11,0,0,1,785.31,60q3.87,1.25,8.25,3.13A59.77,59.77,0,0,1,805.25,60a92.52,92.52,0,0,1,15-1l-17.53,91.45h14.61v7.28a29.29,29.29,0,0,1-5.53,3.43,52.6,52.6,0,0,1-7.52,3,83.64,83.64,0,0,1-8.35,2.14,41.07,41.07,0,0,1-8,.85q-7.3,0-10.44-3.13c-2.08-2.09-3.13-4.24-3.13-6.47a62,62,0,0,1,1-9.92q1-6.15,3.13-15.55ZM751.8,151q4,0,8.25-3.55a48.65,48.65,0,0,0,8.14-8.88,86.42,86.42,0,0,0,7.1-11.69q3.24-6.36,5.53-11.8l7.73-41.33a20,20,0,0,0-4.7-2.41,18.82,18.82,0,0,0-5.74-.73,22.94,22.94,0,0,0-15,5.54,45.54,45.54,0,0,0-11.28,14.4,80.39,80.39,0,0,0-7,19.94,104.2,104.2,0,0,0-2.4,22.13q0,9.62,2.29,14A7.54,7.54,0,0,0,751.8,151Z"/><path class="cls-1" d="M890.23,155.81a115,115,0,0,1-9.3-19.84q-3.43-9.81-6.57-18.58l-6.47-2.09-9.4,49.9H828.84L856.61,25.53l-14-2.72v-7.1a68.81,68.81,0,0,1,7.8-2.61q4.85-1.35,10.53-2.4t11.9-1.77A103.2,103.2,0,0,1,885,8.2l4.42,2.29L870,106.12h6.27a73.7,73.7,0,0,0,7.3-6.48q3.76-3.75,7.1-7.51a90.66,90.66,0,0,0,6-7.41q2.61-3.66,4.08-6.16c.13-1,.24-2.3.31-4s.07-3.37,0-5.12-.14-3.4-.21-5a35.48,35.48,0,0,0-.31-3.65,46.3,46.3,0,0,1,9-2,82.45,82.45,0,0,1,11.07-.73,71.21,71.21,0,0,1,10.54.73,23.27,23.27,0,0,1,7.21,2,53.1,53.1,0,0,1-8,13.57,123,123,0,0,1-11.48,12.53q-6.16,5.85-12.11,10.54c-4,3.13-7.21,5.61-9.71,7.41a98.62,98.62,0,0,0,4.49,9.93q3,6,6.78,12.52t7.94,12.62q4.17,6.1,7.72,10.45h11.28v7.28a32.45,32.45,0,0,1-5.33,3.43,49.33,49.33,0,0,1-7,3,72.77,72.77,0,0,1-7.73,2.14,36.56,36.56,0,0,1-7.72.85,19.34,19.34,0,0,1-9.29-2.29Q893.77,162.5,890.23,155.81Z"/><path class="cls-1" d="M1023.43,142.45a41,41,0,0,1-6.68,8.66,54.43,54.43,0,0,1-10.23,8.14,61.43,61.43,0,0,1-12.95,6.06,45.93,45.93,0,0,1-14.82,2.4q-18.59,0-28.92-10.13t-10.33-28.7a79.46,79.46,0,0,1,4.59-27.15,72,72,0,0,1,12.84-22.44,61.12,61.12,0,0,1,19.63-15.35,55.37,55.37,0,0,1,25-5.64q12.53,0,20.67,5.75a18.25,18.25,0,0,1,8.14,15.76q0,14.2-14.14,23.38T970.4,114.68a58.31,58.31,0,0,0-1.26,11.69q0,11.9,6.08,18.27A20.48,20.48,0,0,0,990.73,151a26.31,26.31,0,0,0,8-1.26,38.67,38.67,0,0,0,7.65-3.34,52.11,52.11,0,0,0,6.7-4.49,60.66,60.66,0,0,0,5.35-4.69ZM996.8,70.21q-7.17,0-13.83,7.72T971.89,104q15.61-.42,25.23-6.89t9.61-16.91a11.39,11.39,0,0,0-2.22-7.1Q1002.29,70.21,996.8,70.21Z"/><path class="cls-1" d="M1080.22,142.24a14.27,14.27,0,0,0-2.51-8.25,45.63,45.63,0,0,0-6.26-7.2,107.24,107.24,0,0,0-8.25-7A54.42,54.42,0,0,1,1055,112a43,43,0,0,1-6.26-9.71,28.83,28.83,0,0,1-2.51-12.42q0-15.85,11.38-23.7t31-7.83c2.22,0,4.7.11,7.41.32a69,69,0,0,1,8.25,1.15c2.78.55,5.46,1.22,8,2a30.31,30.31,0,0,1,7,3,27.1,27.1,0,0,1-.31,6,35.91,35.91,0,0,1-1.88,7.31,28.25,28.25,0,0,1-3.55,6.68,10.73,10.73,0,0,1-5.33,4.07l-16.7-18.58a21.22,21.22,0,0,0-11.17,2.71q-4.48,2.72-4.49,9.6a14.33,14.33,0,0,0,2.61,8.36,43.53,43.53,0,0,0,6.37,7.2q3.76,3.45,8.35,7a59.71,59.71,0,0,1,8.35,7.83,42.57,42.57,0,0,1,6.37,9.71,28.61,28.61,0,0,1,2.61,12.53,27.12,27.12,0,0,1-3.55,14,31.53,31.53,0,0,1-9.71,10.23,45,45,0,0,1-14.72,6.26,78.42,78.42,0,0,1-18.58,2.09,69.92,69.92,0,0,1-19.1-2.4q-8.46-2.4-12.63-5.33a32,32,0,0,1,2.4-13.15,22,22,0,0,1,7.62-10l20.25,19a23,23,0,0,0,12.32-3.34Q1080.22,149.13,1080.22,142.24Z"/><path class="cls-1" d="M672.94,382.63l1.46-7.93a80.39,80.39,0,0,1,9.4-4,39.63,39.63,0,0,1,9.18-2.09L718,250.47a54.3,54.3,0,0,1-8.35-2.4,41.72,41.72,0,0,1-7.52-3.66l1.67-7.93H737q7.94,0,15.34-.63t16.6-.62a100.4,100.4,0,0,1,18.38,1.56,48.8,48.8,0,0,1,14.3,4.81,24.64,24.64,0,0,1,9.29,8.56A23.74,23.74,0,0,1,814.29,263a37.38,37.38,0,0,1-11.38,27.76,43.85,43.85,0,0,1-12.63,8.57,71.13,71.13,0,0,1-15.87,5v.83a53.9,53.9,0,0,1,11.28,2.09,31.94,31.94,0,0,1,10.12,5,26.16,26.16,0,0,1,7.31,8.46,24.92,24.92,0,0,1,2.82,12.21,46.71,46.71,0,0,1-4.49,20.57,45,45,0,0,1-13.26,16.07q-8.76,6.8-21.92,10.55t-30.48,3.75q-4.39,0-9.5-.2c-3.42-.15-6.86-.29-10.34-.42l-10-.42c-3.2-.14-5.92-.21-8.14-.21Zm65.27-12.32a36.89,36.89,0,0,0,14.31-2.71A31.94,31.94,0,0,0,763.68,360a35.89,35.89,0,0,0,7.26-11.49,38,38,0,0,0,2.64-14.3q0-11.47-7.49-15.24t-21-3.76H733.91l-11.28,53.66c1.83.42,3.79.77,5.9,1A81,81,0,0,0,738.21,370.31Zm5.36-68.69q3.58,0,7.27-.31t6.85-.73q12.64-4.8,19-13.78A35.4,35.4,0,0,0,783,265.92q0-8.15-4.86-12.63t-15.85-4.49q-4.44,0-7.92.21t-6.44.62l-11.07,52Z"/><path class="cls-1" d="M883.19,349.23a79.85,79.85,0,0,1-6.79,13,61.59,61.59,0,0,1-9.29,11.38,46.83,46.83,0,0,1-11.48,8.15,30,30,0,0,1-13.57,3.13q-10.86,0-17.33-7.94t-6.47-23.59A99.66,99.66,0,0,1,822.74,323a78.13,78.13,0,0,1,12.74-24.63,59.11,59.11,0,0,1,19.94-16.5,56.64,56.64,0,0,1,26.1-5.95,30.49,30.49,0,0,1,9.29,1.25c2.57.84,5.32,1.88,8.25,3.14a60.1,60.1,0,0,1,11.69-3.14,93.69,93.69,0,0,1,15-1L908.24,367.6h14.62v7.28a30.15,30.15,0,0,1-5.53,3.43,51.9,51.9,0,0,1-7.52,3,81.69,81.69,0,0,1-8.35,2.15,42,42,0,0,1-8,.85q-7.3,0-10.44-3.13c-2.09-2.09-3.13-4.24-3.13-6.47a61.77,61.77,0,0,1,1-9.92q1.05-6.15,3.13-15.55Zm-25.89,19q4,0,8.25-3.54a48.65,48.65,0,0,0,8.14-8.88,87.45,87.45,0,0,0,7.1-11.69q3.23-6.36,5.53-11.8L894.05,291a20.32,20.32,0,0,0-4.7-2.4,18.82,18.82,0,0,0-5.74-.73,23,23,0,0,0-15,5.53,45.7,45.7,0,0,0-11.27,14.41,80.25,80.25,0,0,0-7,19.94,104.2,104.2,0,0,0-2.4,22.13q0,9.61,2.3,14A7.53,7.53,0,0,0,857.3,368.22Z"/><path class="cls-1" d="M995.72,373a115,115,0,0,1-9.29-19.84q-3.43-9.81-6.58-18.58l-6.47-2.09L964,382.42H934.34l27.77-139.68-14-2.71v-7.1a67.87,67.87,0,0,1,7.79-2.61q4.85-1.35,10.54-2.4t11.9-1.77a103.09,103.09,0,0,1,12.11-.74l4.43,2.3-19.42,95.63h6.26a72.64,72.64,0,0,0,7.31-6.48q3.76-3.75,7.1-7.51a89.07,89.07,0,0,0,6-7.42q2.61-3.65,4.07-6.15c.14-1,.24-2.3.32-4s.06-3.37,0-5.12-.15-3.41-.21-5A34.4,34.4,0,0,0,1006,278a45.13,45.13,0,0,1,9-2,82.44,82.44,0,0,1,11.07-.74,71.26,71.26,0,0,1,10.54.74,22.57,22.57,0,0,1,7.2,2,53.34,53.34,0,0,1-8,13.57,121.91,121.91,0,0,1-11.49,12.53q-6.15,5.85-12.11,10.54c-4,3.13-7.2,5.61-9.71,7.41a102,102,0,0,0,4.49,9.93q3,6,6.79,12.52t7.93,12.62q4.19,6.11,7.73,10.45h11.27v7.28a33,33,0,0,1-5.32,3.43,47.84,47.84,0,0,1-7,3,69.72,69.72,0,0,1-7.72,2.15,37.33,37.33,0,0,1-7.73.85,19.35,19.35,0,0,1-9.29-2.3Q999.28,379.71,995.72,373Z"/><path class="cls-1" d="M1128.93,359.66a41.11,41.11,0,0,1-6.68,8.67,54.91,54.91,0,0,1-10.24,8.14,61.11,61.11,0,0,1-12.94,6.06,46,46,0,0,1-14.82,2.4q-18.59,0-28.92-10.13T1045,346.09a79.21,79.21,0,0,1,4.6-27.14,72,72,0,0,1,12.84-22.44,61,61,0,0,1,19.62-15.35,55.4,55.4,0,0,1,25-5.64q12.54,0,20.67,5.74a18.28,18.28,0,0,1,8.15,15.77q0,14.21-14.15,23.38T1075.9,331.9a55.45,55.45,0,0,0-1,6c-.2,2-.31,3.93-.31,5.74q0,11.9,6.08,18.27a20.51,20.51,0,0,0,15.51,6.36,26.23,26.23,0,0,0,8-1.25,38.74,38.74,0,0,0,7.65-3.34,53.29,53.29,0,0,0,6.71-4.49,62.15,62.15,0,0,0,5.35-4.7Zm-26.63-72.24q-7.18,0-13.83,7.73t-11.08,26.1q15.61-.42,25.23-6.89t9.6-16.91a11.44,11.44,0,0,0-2.21-7.1Q1107.79,287.42,1102.3,287.42Z"/><path class="cls-1" d="M1185.71,359.46a14.26,14.26,0,0,0-2.5-8.25,44.78,44.78,0,0,0-6.27-7.2,105.16,105.16,0,0,0-8.24-7,54.94,54.94,0,0,1-8.25-7.83,42.67,42.67,0,0,1-6.26-9.71,28.89,28.89,0,0,1-2.51-12.42q0-15.87,11.38-23.7t31-7.83q3.35,0,7.42.32a70.55,70.55,0,0,1,8.24,1.14c2.79.56,5.46,1.23,8,2a29.78,29.78,0,0,1,7,3,27.2,27.2,0,0,1-.32,5.95,35,35,0,0,1-1.88,7.3,27.18,27.18,0,0,1-3.55,6.68,10.73,10.73,0,0,1-5.32,4.08L1197,287.42a21.22,21.22,0,0,0-11.17,2.72q-4.5,2.72-4.49,9.6a14.28,14.28,0,0,0,2.61,8.35,43.19,43.19,0,0,0,6.37,7.21c2.5,2.29,5.28,4.63,8.35,7a60.27,60.27,0,0,1,8.35,7.83,42.57,42.57,0,0,1,6.37,9.71,28.61,28.61,0,0,1,2.61,12.53,27.22,27.22,0,0,1-3.55,14,31.84,31.84,0,0,1-9.71,10.23,45,45,0,0,1-14.72,6.26,78.42,78.42,0,0,1-18.58,2.09,70,70,0,0,1-19.11-2.4c-5.63-1.6-9.85-3.38-12.63-5.33a32.32,32.32,0,0,1,2.4-13.15,22,22,0,0,1,7.62-10L1168,373a23.07,23.07,0,0,0,12.31-3.34Q1185.71,366.35,1185.71,359.46Z"/><path class="cls-1" d="M911.35,259.69q-2.34-1.54-5.89-3.83a50.43,50.43,0,0,1-7.77-6.38,26.49,26.49,0,0,1-3.88,4.16,28.14,28.14,0,0,1-5.5,3.72,32.37,32.37,0,0,1-7,2.67,34.21,34.21,0,0,1-8.44,1,30.48,30.48,0,0,1-10.66-1.77,25,25,0,0,1-8.1-4.77,21.62,21.62,0,0,1-5.16-6.89,18.79,18.79,0,0,1-1.83-8.1,23.29,23.29,0,0,1,2-9.82,32.52,32.52,0,0,1,4.77-7.66,36.93,36.93,0,0,1,5.77-5.55c2-1.52,3.66-2.76,5-3.72a32.86,32.86,0,0,1-5.44-8.33,21.17,21.17,0,0,1-2.22-8.87,14.45,14.45,0,0,1,1.11-5.5,13.65,13.65,0,0,1,3.27-4.77,16.67,16.67,0,0,1,5.33-3.33,19,19,0,0,1,7.16-1.28q7.32,0,11.82,3.16a10.51,10.51,0,0,1,4.5,9.16,18.12,18.12,0,0,1-1.28,6.83,25.44,25.44,0,0,1-3.28,5.83,33.46,33.46,0,0,1-4.49,4.88c-1.67,1.48-3.31,2.85-4.94,4.11a145.69,145.69,0,0,0,10.54,11.65q6,6,12.66,12a26.27,26.27,0,0,0,2.22-4.11,51.65,51.65,0,0,0,2.5-6.77A65.14,65.14,0,0,0,906,218.9a40.27,40.27,0,0,0,.39-9.16,19.72,19.72,0,0,1-6.55-2.66v-2.89h22.54v2.89a20.22,20.22,0,0,1-7.33,2.66,93.81,93.81,0,0,1-2.55,11.88,95.54,95.54,0,0,1-3.22,9.38q-1.66,4-3.17,6.88T903.69,242q4.21,3.45,8.27,6.39a102.78,102.78,0,0,0,9,5.82l6.11,2.67v2.77ZM893.92,246q-3.33-3-7.27-7t-7.6-8.27q-3.67-4.22-6.77-8.1t-4.89-6.44a33.13,33.13,0,0,0-7,9,22.94,22.94,0,0,0-2.16,10.26,21.49,21.49,0,0,0,1.39,7.83,19.39,19.39,0,0,0,3.86,6.27,17.24,17.24,0,0,0,5.92,4.16,18.58,18.58,0,0,0,7.48,1.5,20,20,0,0,0,9.38-2.27A22.19,22.19,0,0,0,893.92,246Zm-28.64-50.92a13,13,0,0,0,.78,4.24,25.76,25.76,0,0,0,2.05,4.46q1.27,2.19,2.78,4.29t2.94,3.74a27.83,27.83,0,0,0,6.49-7.65,17.06,17.06,0,0,0,1.95-10.29A10,10,0,0,0,880,188c-1.33-1.62-3.44-2.42-6.32-2.42a8.82,8.82,0,0,0-4.05.82,7.21,7.21,0,0,0-2.61,2.2,8.33,8.33,0,0,0-1.39,3.09A15.42,15.42,0,0,0,865.28,195.12Z"/><path class="cls-1" d="M937.59,457.29V417.23h12.77a24.19,24.19,0,0,1,6.36.73,12.11,12.11,0,0,1,4.39,2.07,8.13,8.13,0,0,1,2.55,3.28,11.1,11.1,0,0,1,.82,4.38,8.86,8.86,0,0,1-.46,2.85,8.24,8.24,0,0,1-1.4,2.54,10,10,0,0,1-2.34,2.1,13.37,13.37,0,0,1-3.32,1.51,12.35,12.35,0,0,1,6.63,3.16,8.28,8.28,0,0,1,2.23,6,11.34,11.34,0,0,1-.93,4.64,10,10,0,0,1-2.74,3.6,12.75,12.75,0,0,1-4.42,2.34,19.81,19.81,0,0,1-6,.82ZM943,435.18h7.16a13.72,13.72,0,0,0,4-.51,8.05,8.05,0,0,0,2.78-1.39,5.52,5.52,0,0,0,1.64-2.17,7.21,7.21,0,0,0,.53-2.78q0-3.52-2.13-5.17t-6.6-1.65H943Zm0,3.86V453h8.67a13.27,13.27,0,0,0,4-.53,7.58,7.58,0,0,0,2.74-1.5,5.73,5.73,0,0,0,1.58-2.29,8.1,8.1,0,0,0,.5-2.92,6,6,0,0,0-2.19-4.91c-1.46-1.2-3.68-1.8-6.64-1.8Z"/><path class="cls-1" d="M1011.56,441.36v15.93h-5.39V441.36l-14.68-24.13h4.75a1.72,1.72,0,0,1,1.15.36,3.4,3.4,0,0,1,.72.9l9.17,15.57a17.9,17.9,0,0,1,.94,1.84c.25.58.48,1.15.68,1.71.21-.58.43-1.16.68-1.73a14.83,14.83,0,0,1,.92-1.82l9.14-15.57a3.58,3.58,0,0,1,.69-.85,1.57,1.57,0,0,1,1.13-.41h4.81Z"/><path class="cls-1" d="M1092.77,440.57v16.72h-5.39V417.23h11.32a24.84,24.84,0,0,1,6.57.77,12.42,12.42,0,0,1,4.57,2.22,9,9,0,0,1,2.67,3.51,12.36,12.36,0,0,1,.2,8.57,10.52,10.52,0,0,1-2,3.31,11.47,11.47,0,0,1-3.1,2.5,15.16,15.16,0,0,1-4.15,1.57,5.75,5.75,0,0,1,1.79,1.7L1117,457.29h-4.8a2.39,2.39,0,0,1-2.19-1.14l-10.4-14.32a2.89,2.89,0,0,0-1-1,3.65,3.65,0,0,0-1.68-.3Zm0-3.94h5.68a13.9,13.9,0,0,0,4.18-.57,8.47,8.47,0,0,0,3-1.62,6.81,6.81,0,0,0,1.83-2.5,8.21,8.21,0,0,0,.61-3.22,6.38,6.38,0,0,0-2.36-5.4c-1.57-1.21-3.92-1.81-7-1.81h-5.93Z"/><path class="cls-1" d="M1151.62,457.29h-5.42V417.23h5.42Z"/><path class="cls-1" d="M1217.68,457.29h-4.19a1.78,1.78,0,0,1-1.17-.36,2.24,2.24,0,0,1-.68-.92l-3.74-9.68h-18l-3.74,9.68a2.19,2.19,0,0,1-.68.89,1.76,1.76,0,0,1-1.17.39h-4.19l16-40.06h5.5Zm-26.25-14.87h15l-6.29-16.3a30.35,30.35,0,0,1-1.2-3.77c-.21.76-.41,1.46-.6,2.11s-.39,1.2-.58,1.69Z"/></g></g></svg>