<svg width="229" height="208" viewBox="0 0 229 208" fill="none" xmlns="http://www.w3.org/2000/svg">
<path d="M220.477 122.677C220.615 122.325 220.868 122.03 221.193 121.839C221.519 121.648 221.899 121.572 222.273 121.622C222.648 121.673 222.994 121.847 223.257 122.118C223.521 122.389 223.686 122.74 223.726 123.115L228.462 172.112C228.597 173.505 228.288 174.906 227.579 176.113C226.87 177.32 225.798 178.273 224.515 178.834C191.706 193.143 156.882 202.295 121.277 205.963C84.596 209.73 47.5491 207.633 11.5274 199.75C9.81258 199.368 8.26238 198.454 7.0984 197.138C5.93442 195.822 5.21625 194.172 5.04653 192.423L0.00827772 140.282C-0.024503 139.952 0.0405333 139.62 0.195277 139.327C0.350021 139.034 0.587625 138.793 0.878462 138.634C1.1693 138.475 1.5005 138.405 1.83077 138.433C2.16104 138.461 2.47576 138.585 2.73569 138.791C8.22121 143.176 15.8509 147.587 24.9321 147.6C40.4283 147.627 46.1156 134.84 58.8844 136.927C73.109 139.247 75.8759 156.734 86.2681 155.813C96.4762 154.91 96.7481 137.783 109.131 134.766C121.062 131.863 127.214 146.197 140.948 143.803C152.739 141.747 152.945 130.363 163.723 128.829C178.25 126.759 184.793 146.473 198.912 144.943C208.945 143.847 216.438 132.762 220.477 122.677Z" fill="#D1D5DC"/>
<path d="M181.197 45.1077C181.4 44.8328 181.681 44.6259 182.004 44.5145C182.327 44.403 182.677 44.3922 183.006 44.4834C183.335 44.5746 183.629 44.7636 183.849 45.0254C184.068 45.2872 184.203 45.6095 184.236 45.9496L187.406 78.8364C187.544 80.2308 187.236 81.6331 186.527 82.8417C185.818 84.0504 184.744 85.003 183.46 85.5628C160.349 95.4787 135.869 101.836 110.854 104.418C84.7713 107.096 58.4288 105.632 32.803 100.081C31.4336 99.7794 30.1954 99.0509 29.2663 98.0005C28.3373 96.9502 27.7655 95.6322 27.6332 94.2362L24.4322 61.1389C24.396 60.7723 24.4808 60.4038 24.6736 60.0898C24.8663 59.7759 25.1565 59.5336 25.4998 59.3999C25.8432 59.2662 26.2208 59.2486 26.5751 59.3496C26.9294 59.4506 27.241 59.6648 27.4622 59.9594C30.9701 64.6644 35.9119 68.5275 40.8142 68.0364C49.1456 67.1988 50.4873 54.5002 58.3188 54.2371C65.1329 54.0047 67.1807 63.5155 74.6789 63.4454C81.4579 63.3621 82.3831 55.5525 89.969 54.5703C98.4626 53.4566 101.747 62.6517 110.14 61.3713C117.3 60.2751 117.677 53.1496 124.097 52.6015C132.801 51.8911 136.699 64.6161 143.982 63.4673C150.998 62.3667 151.2 49.9355 159.36 48.5323C164.583 47.629 166.582 52.3559 172.41 51.308C176.374 50.5932 179.298 47.6992 181.197 45.1077Z" fill="#D1D5DC"/>
<path d="M139.773 0.377293C140.01 0.184508 140.296 0.0599121 140.599 0.0168249C140.902 -0.0262623 141.211 0.0137794 141.492 0.132669C141.774 0.251559 142.019 0.444828 142.199 0.691813C142.38 0.938798 142.49 1.23021 142.518 1.53491L143.395 10.695C143.533 12.1113 143.211 13.5345 142.477 14.7538C141.744 15.9731 140.637 16.9239 139.321 17.4653C127.587 22.2675 115.227 25.3683 102.615 26.6736C89.8887 27.9827 77.04 27.4481 64.4663 25.0862C62.6912 24.7555 61.0715 23.857 59.8512 22.526C58.6309 21.195 57.8761 19.5036 57.7004 17.7064L56.8235 8.76562C56.7964 8.44765 56.8599 8.12853 57.0064 7.84505C57.1529 7.56158 57.3766 7.32531 57.6517 7.16349C57.9267 7.00168 58.2419 6.92091 58.5609 6.93051C58.8798 6.94011 59.1896 7.03968 59.4544 7.21774C64.576 10.7257 71.4866 9.94954 72.1706 9.84869C79.261 8.92347 79.9845 4.45087 85.7638 4.4991C92.863 4.55611 94.1346 11.2782 100.532 11.1466C107.438 10.9844 108.315 3.24502 116.537 2.21457C122.281 1.48229 123.584 5.04283 130.192 4.25793C133.654 3.76439 136.943 2.4322 139.773 0.377293Z" fill="#D1D5DC"/>
<path fill-rule="evenodd" clip-rule="evenodd" d="M106 135.935C101.669 138.18 99.1063 142.412 96.6922 146.399C93.8749 151.052 91.2591 155.372 86.2681 155.813C81.1993 156.263 77.9446 152.332 74.2896 147.919C70.451 143.284 66.171 138.116 58.8844 136.928C52.4243 135.872 47.7769 138.623 42.7548 141.595C37.8503 144.499 32.5884 147.613 24.9321 147.6C15.8509 147.587 8.2212 143.176 2.73569 138.791C2.47576 138.586 2.16104 138.461 1.83077 138.433C1.5005 138.405 1.1693 138.475 0.878462 138.634C0.587625 138.793 0.350021 139.034 0.195277 139.327C0.0405333 139.62 -0.024503 139.952 0.00827772 140.282L5.04653 192.423C5.21625 194.172 5.93442 195.822 7.0984 197.138C8.26238 198.454 9.81258 199.368 11.5274 199.75C42.5539 206.54 74.3411 209.037 106 207.192V135.935Z" fill="#FF73DE"/>
<path fill-rule="evenodd" clip-rule="evenodd" d="M106 61.1541C103.803 60.564 101.935 59.2905 100.061 58.0122C97.1395 56.0196 94.2009 54.0154 89.969 54.5704C86.1856 55.0602 84.059 57.2484 82.0366 59.3293C80.0041 61.4206 78.0769 63.4036 74.6789 63.4454C70.8624 63.4811 68.458 61.0348 66.1184 58.6544C63.8614 56.358 61.6647 54.123 58.3188 54.2371C54.4147 54.3683 52.1234 57.5899 49.7749 60.8918C47.4125 64.2135 44.9923 67.6164 40.8142 68.0364C35.9119 68.5275 30.9701 64.6644 27.4622 59.9594C27.241 59.6648 26.9294 59.4506 26.5751 59.3496C26.2208 59.2486 25.8432 59.2663 25.4998 59.3999C25.1565 59.5336 24.8663 59.7759 24.6736 60.0899C24.4808 60.4039 24.396 60.7723 24.4322 61.1389L27.6332 94.2362C27.7655 95.6322 28.3373 96.9502 29.2663 98.0006C30.1954 99.0509 31.4336 99.7794 32.803 100.081C56.84 105.288 81.5075 106.899 106 104.868V61.1541Z" fill="#FF73DE"/>
<path fill-rule="evenodd" clip-rule="evenodd" d="M106 8.92441C104.523 10.1652 102.874 11.0917 100.532 11.1467C97.3894 11.2113 95.4836 9.62198 93.5163 7.98136C91.4789 6.28228 89.3755 4.52817 85.7638 4.49917C82.8608 4.47494 81.2334 5.59145 79.4339 6.82604C77.6511 8.04921 75.6993 9.38829 72.1706 9.84875C71.4866 9.9496 64.576 10.7257 59.4544 7.21781C59.1896 7.03975 58.8798 6.94017 58.5609 6.93057C58.2419 6.92097 57.9267 7.00174 57.6517 7.16356C57.3766 7.32537 57.1529 7.56164 57.0064 7.84512C56.8599 8.12859 56.7964 8.44771 56.8235 8.76568L57.7004 17.7065C57.8761 19.5037 58.6309 21.1951 59.8512 22.5261C61.0715 23.8571 62.6912 24.7556 64.4663 25.0863C77.04 27.4481 89.8887 27.9828 102.615 26.6736C103.745 26.5566 104.874 26.4252 106 26.2794V8.92441Z" fill="#FF73DE"/>
</svg>
