<svg xmlns="http://www.w3.org/2000/svg" viewBox="0 0 521.05 473.81"><defs><style>.cls-1{fill:currentColor;}</style></defs><g id="Layer_2" data-name="Layer 2"><g id="Layer_1-2" data-name="Layer 1"><path class="cls-1" d="M502.79,279.72a3.85,3.85,0,0,1,7.41,1L521,392.46a15.14,15.14,0,0,1-9,15.33,792,792,0,0,1-235.44,61.87A792.24,792.24,0,0,1,26.27,455.49a19,19,0,0,1-14.78-16.71L0,319.87a3.85,3.85,0,0,1,6.22-3.4c12.51,10,29.91,20.06,50.62,20.09,35.34.06,48.31-29.1,77.43-24.34,32.44,5.29,38.75,45.17,62.45,43.07,23.28-2.06,23.9-41.12,52.14-48,27.21-6.62,41.24,26.07,72.56,20.61,26.89-4.69,27.36-30.65,51.94-34.15,33.13-4.72,48.05,40.24,80.25,36.75C476.49,328,493.58,302.72,502.79,279.72Z"/><path class="cls-1" d="M413.21,102.82a3.85,3.85,0,0,1,6.93,1.92l7.23,75a15.11,15.11,0,0,1-9,15.34,567.78,567.78,0,0,1-165.58,43,567.17,567.17,0,0,1-178-9.89A15.11,15.11,0,0,1,63,214.86L55.7,139.38a3.85,3.85,0,0,1,6.91-2.69c8,10.73,19.27,19.54,30.45,18.42,19-1.91,22.06-30.87,39.92-31.47,15.54-.53,20.21,21.16,37.31,21,15.46-.19,17.57-18,34.87-20.24,19.37-2.54,26.86,18.43,46,15.51,16.33-2.5,17.19-18.75,31.83-20,19.85-1.62,28.74,27.4,45.35,24.78,16-2.51,16.46-30.86,35.07-34.06,11.91-2.06,16.47,8.72,29.76,6.33C402.21,115.33,408.88,108.73,413.21,102.82Z"/><path class="cls-1" d="M318.74.81A3.85,3.85,0,0,1,325,3.45l2,20.89a15.11,15.11,0,0,1-9.29,15.44,303.51,303.51,0,0,1-83.71,21,303.2,303.2,0,0,1-87-3.62,19,19,0,0,1-15.43-16.83l-2-20.39a3.86,3.86,0,0,1,6-3.53c11.68,8,27.44,6.23,29,6,16.17-2.11,17.82-12.31,31-12.2,16.19.13,19.09,15.46,33.68,15.16C245,25,247,7.35,265.75,5c13.1-1.67,16.07,6.45,31.14,4.66A48.94,48.94,0,0,0,318.74.81Z"/></g></g></svg>